<svg xmlns="http://www.w3.org/2000/svg" width="32" height="32" viewBox="0 0 32 32">
    <g fill="none" fill-rule="evenodd" stroke="#FE6F5E" stroke-width="2">
        <path d="M19.92 20.432l-2.556 5.113h-2.728l-2.539-5.08"/>
        <path d="M11.525 20.09h-.98A9.545 9.545 0 0 0 1 29.637V31h30v-1.364a9.545 9.545 0 0 0-9.546-9.545h-.98M7.835 10.207A7.493 7.493 0 0 0 19.409 7.52a7.517 7.517 0 0 0 4.773 4.098"/>
        <path stroke-linecap="square" d="M16 21.455a8.183 8.183 0 0 1-8.182-8.182V9.182a8.183 8.183 0 0 1 16.364 0v4.09A8.183 8.183 0 0 1 16 21.456z"/>
        <path d="M11.91 31l2.726-5.455M17.364 25.545L20.09 31"/>
    </g>
</svg>
