<svg xmlns="http://www.w3.org/2000/svg" style="display: none;">

	<!-- Social -->
	<symbol id="instagram" viewBox="0 0 20 20" x="0" y="0">
		<path fill="currentColor" d="M10 2.2c2.5 0 2.8 0 3.8.1.9 0 1.4.2 1.8.3.4.2.8.4 1.1.7.3.3.5.7.7 1.1.1.3.3.8.3 1.8s.1 1.3.1 3.8 0 2.8-.1 3.8c0 .9-.2 1.4-.3 1.8-.2.4-.4.8-.7 1.1-.3.3-.6.5-1.1.7-.3.1-.8.3-1.8.3s-1.3.1-3.8.1-2.8 0-3.8-.1c-.9 0-1.4-.2-1.8-.3-.4-.2-.8-.4-1.1-.7-.3-.3-.5-.7-.7-1.1-.1-.3-.3-.8-.3-1.8s-.1-1.3-.1-3.8 0-2.8.1-3.8c0-.9.2-1.4.3-1.8.2-.4.4-.8.7-1.1.3-.3.7-.5 1.1-.7.3-.1.8-.3 1.8-.3 1-.1 1.3-.1 3.8-.1m0-1.7C7.4.5 7.1.5 6.1.6c-1 0-1.7.2-2.3.4-.6.2-1.2.6-1.7 1.1-.5.5-.9 1.1-1.1 1.7-.2.6-.4 1.3-.4 2.3 0 1-.1 1.3-.1 3.9 0 2.6 0 2.9.1 3.9 0 1 .2 1.7.4 2.3.2.6.6 1.2 1.1 1.7.5.5 1.1.9 1.7 1.1.6.2 1.3.4 2.3.4 1 0 1.3.1 3.9.1s2.9 0 3.9-.1c1 0 1.7-.2 2.3-.4.6-.2 1.2-.6 1.7-1.1.5-.5.9-1.1 1.1-1.7.2-.6.4-1.3.4-2.3 0-1 .1-1.3.1-3.9s0-2.9-.1-3.9c0-1-.2-1.7-.4-2.3-.2-.6-.6-1.2-1.1-1.7-.5-.5-1.1-.9-1.7-1.1-.6-.2-1.3-.4-2.3-.4-1-.1-1.3-.1-3.9-.1z"/><path fill="currentColor" d="M10 5.1c-2.7 0-4.9 2.2-4.9 4.9s2.2 4.9 4.9 4.9 4.9-2.2 4.9-4.9-2.2-4.9-4.9-4.9zm0 8.1c-1.7 0-3.2-1.4-3.2-3.2S8.3 6.8 10 6.8c1.7 0 3.2 1.4 3.2 3.2s-1.5 3.2-3.2 3.2z"/><circle fill="currentColor" cx="15.1" cy="4.9" r="1.1"/>
	</symbol>

  <symbol id="facebook" viewBox="0 0 15 15" x="0" y="0">
    <path fill="currentColor" fill-rule="evenodd" d="M9.49 15V8.168h2.978l.425-2.667H9.49V3.834c0-.833.319-1.334 1.702-1.334H13V.084C12.68.084 11.617 0 10.34 0 7.788 0 5.979 1.25 5.979 3.5v2H3v2.668h2.978V15H9.49z"/>
  </symbol>

  <symbol id="twitter" viewBox="0 0 15 15" x="0" y="0">
    <path fill="currentColor" fill-rule="evenodd" d="M15 3.31a7.207 7.207 0 0 1-1.732.462c.66-.385 1.155-.924 1.32-1.54a7.873 7.873 0 0 1-1.897.693C12.115 2.385 11.374 2 10.467 2c-1.648 0-3.05 1.31-3.05 2.851 0 .231 0 .462.083.616C4.945 5.39 2.72 4.235 1.154 2.54a2.526 2.526 0 0 0-.412 1.387c0 1.002.576 1.85 1.318 2.39-.494 0-.989-.155-1.4-.386 0 1.387 1.07 2.543 2.472 2.774-.247.077-.495.077-.824.077-.166 0-.412 0-.578-.077.412 1.156 1.484 1.926 2.803 2.003A6.504 6.504 0 0 1 .742 11.94H0c1.318.77 2.966 1.31 4.698 1.31 5.604 0 8.654-4.315 8.654-8.09v-.386c.74-.385 1.236-.925 1.648-1.464"/>
  </symbol>

	<symbol id="linkedin" viewBox="0 0 20 20" x="0" y="0">
		<path fill="currentColor" d="M2.8 5.2C1.4 5.2.5 4.3.5 3.1.6 1.9 1.5 1 2.8 1s2.3.9 2.3 2.1-.8 2.1-2.3 2.1zM4.9 19H.8V6.8h4.1V19zm14.4 0h-4.1v-6.5c0-1.7-.6-2.7-2-2.7-1.1 0-1.8.8-2 1.5-.1.2-.1.5-.1.9V19H7C7.1 8 7 6.9 7 6.9h4.1v1.7c.5-.8 1.5-2 3.7-2 2.6 0 4.7 1.7 4.7 5.5l-.2 6.9z"/>
	</symbol>

  <symbol id="linkedin" viewBox="0 0 15 15" x="0" y="0">
    <path fill="currentColor" fill-rule="evenodd" d="M14.94 14.75h-3.227V9.823c0-1.26-.477-2.063-1.614-2.063-.896 0-1.433.573-1.612 1.147-.12.114-.12.4-.12.687v5.156H5.139c.061-8.365 0-9.224 0-9.224h3.228v1.318c.418-.631 1.195-1.547 2.928-1.547C13.387 5.297 15 6.614 15 9.479v5.271h-.06zm-14.76 0h3.227V5.47H.179v9.28zM1.792 4.208C.718 4.208 0 3.521 0 2.604S.718 1 1.793 1c1.076 0 1.793.687 1.793 1.604s-.658 1.604-1.793 1.604z"/>
  </symbol>


	<symbol id="youtube" viewBox="0 0 20 20" x="0" y="0">
		<path fill="currentcolor" d="M8.1 12V6.9L13 9.4 8.1 12zm10.7-6s-.2-1.2-.7-1.8c-.7-.7-1.5-.7-1.8-.8-2.5-.1-6.3-.1-6.3-.1s-3.8 0-6.3.2c-.4 0-1.1 0-1.8.8-.5.5-.7 1.7-.7 1.7S1 7.5 1 8.9v1.4c0 1.5.2 2.9.2 2.9s.2 1.2.7 1.8c.7.7 1.6.7 2 .8 1.4.1 6.1.2 6.1.2s3.8 0 6.3-.2c.4 0 1.1 0 1.8-.8.5-.5.7-1.8.7-1.8s.2-1.5.2-2.9V8.9c0-1.4-.2-2.9-.2-2.9"/>
	</symbol>

	<symbol id="pinterest" viewBox="0 0 20 20" x="0" y="0">
		<path fill="currentColor" d="M4 11.6c.3.1.5 0 .6-.3.1-.2.2-.7.3-.9.1-.3.1-.4-.2-.7-.5-.5-.8-1.2-.8-2.2C3.9 4.6 6.2 2 10 2c3.3 0 5.1 1.9 5.1 4.4 0 3.3-1.6 6.1-3.9 6.1-1.3 0-2.3-1-2-2.2.4-1.5 1.1-3 1.1-4.1 0-.9-.5-1.7-1.7-1.7-1.3 0-2.4 1.3-2.4 3 0 1.1.4 1.8.4 1.8S5.2 14.6 5 15.6c-.5 1.9-.1 4.1 0 4.4 0 .1.2.2.3.1.1-.1 1.7-2 2.2-3.8.3-.6 1-3.3 1-3.3.4.8 1.7 1.4 3 1.4 4 0 6.7-3.4 6.7-7.9 0-3.4-3.1-6.6-7.8-6.6-5.9.1-8.9 4-8.9 7.3 0 2 .8 3.7 2.5 4.4"/>
	</symbol>

	<symbol id="wechat" viewBox="0 0 30 30" x="0" y="0">
	    <path fill="currentColor" fill-rule="nonzero" d="M26.25 24.655L27.187 27l-3-1.443c-1.125.36-2.062.541-3.187.541-5.063 0-9-3.247-9-7.216 0-3.968 3.937-7.215 9-7.215 4.688 0 9 3.247 9 7.215 0 2.165-1.688 4.15-3.75 5.773zM17.923 15.5c-.462 0-.77.523-.923.871 0 .523.461 1.046.923 1.046.615 0 1.077-.523 1.077-.872 0-.522-.462-1.045-1.077-1.045zm6 0c-.461 0-.923.48-.923.958 0 .48.462.959.923.959.77 0 1.077-.48 1.077-.959s-.462-.958-1.077-.958zm-12.772 3.463c0 .722.185 1.262.371 1.983h-.93c-1.3 0-2.415-.18-3.716-.54l-3.717 1.802 1.115-3.064C1.487 17.52 0 15.178 0 12.474 0 7.785 4.646 4.18 10.407 4 15.611 4 20.071 7.065 21 11.03h-.929c-5.018 0-8.92 3.426-8.92 7.933zM7.6 7.833C6.8 7.833 6 8.45 6 9.271c0 .821.8 1.437 1.6 1.437S9 10.092 9 9.271c0-.822-.6-1.438-1.4-1.438zm7.011 0c-.793 0-1.785.616-1.586 1.438 0 .821.793 1.437 1.586 1.437S16 10.092 16 9.271c0-.822-.595-1.438-1.388-1.438z"/>
	</symbol>



	<!-- Share -->
	<symbol id="share" viewBox="0 0 20 20" x="0" y="0">
		<line x1="7" x2="12.9" y1="8.5" y2="5.5" fill="none" stroke="currentColor" stroke-width="1.5" stroke-miterlimit="10"/><line x1="7" x2="12.9" y1="11.5" y2="14.4" fill="none" stroke="currentColor" stroke-width="1.5" stroke-miterlimit="10"/><circle fill="currentColor" cx="4" cy="10" r="3.5"/><circle fill="currentColor" cx="16" cy="4" r="3.5"/><circle fill="currentColor" cx="16" cy="16" r="3.5"/>
	</symbol>


	<!-- Arrow -->

	<!--   >    -->
	<symbol id="arrow_right" viewBox="0 0 20 20" x="0" y="0"><path fill="currentColor" stroke="currentColor" stroke-width=".5" d="M4.8 1.9l8.4 6.4c1 .7 1.1 2.1.4 3.1-.1.2-.3.3-.4.4l-8.4 6.4c-.3.2-.4.7-.1 1 .2.3.7.4 1 .2l8.4-6.4c1.6-1.2 1.9-3.5.7-5.1-.2-.3-.4-.5-.7-.7L5.6.7c-.3-.2-.8-.2-1 .1-.2.4-.1.8.2 1.1z"/></symbol>
	<!--   <    -->
	<symbol id="arrow_left" viewBox="0 0 20 20" x="0" y="0"><path fill="currentColor" stroke="currentColor" stroke-width=".5" d="M15.2 18.1l-8.4-6.4c-1-.7-1.1-2.1-.4-3.1.1-.2.3-.3.4-.4l8.4-6.4c.3-.2.4-.7.1-1-.2-.3-.7-.4-1-.2L5.9 7.1c-1.6 1.2-1.9 3.5-.6 5.1.2.3.4.5.7.7l8.4 6.4c.3.2.8.2 1-.1.2-.4.1-.8-.2-1.1z"/></symbol>

	<!-- carret / arrow down -->
	<symbol id="arrow_down"  viewBox="0 0 10 7" x="0" y="0">
		<path fill="none" fill-rule="evenodd" stroke="currentColor" stroke-linecap="round" stroke-linejoin="round" stroke-width="2" d="M8.146 1.55L4.611 5.298 1.075 1.55"/>
	</symbol>

	<symbol id="arrow_up" viewBox="0 0 20 20" x="0" y="0"><path fill="currentColor" stroke="currentColor" stroke-width=".5" d="M1.9 15.2l6.4-8.4c.7-1 2.1-1.1 3.1-.4.2.1.3.3.4.4l6.4 8.4c.2.3.7.4 1 .1.3-.2.4-.7.2-1l-6.5-8.4C11.7 4.3 9.4 4 7.8 5.3c-.3.2-.5.4-.7.7L.7 14.4c-.2.3-.2.8.1 1 .4.2.8.1 1.1-.2z"/></symbol>

	<symbol id="arrow_accordion" viewBox="0 0 15 15" x="0" y="0">
    <path fill="currentColor" fill-rule="nonzero" d="M3 13.233L4.767 15l7.5-7.5-7.5-7.5L3 1.767 8.733 7.5z"/>
	</symbol>


	<!-- Other -->

	<!-- Close -->
	<symbol id="close" viewBox="0 0 18 18" x="0" y="0">
    <path fill="currentColor" fill-rule="nonzero" d="M18 1.813L16.187 0 9 7.187 1.813 0 0 1.813 7.187 9 0 16.187 1.813 18 9 10.813 16.187 18 18 16.187 10.813 9z"/>
	</symbol>


	<!-- Plus -->
	<symbol id="plus" viewBox="0 0 10 10" x="0" y="0">
    <path fill="currentColor" fill-rule="nonzero" d="M4.783 4.328l-.455.455v-.455h.455zm-.455 0L4.33 0h1.342v4.328L10 4.33v1.342H5.67L5.672 10H4.329V5.67L0 5.672V4.329h4.328zm0 .888l.455.455h-.455v-.455zm1.343.455h-.455l.455-.455v.455zm0-.888l-.455-.455h.455v.455z"/>
	</symbol>

	<!-- Minus -->
	<symbol id="minus" viewBox="0 0 10 10" x="0" y="0">
    <path fill="currentColor" fill-rule="nonzero" d="M10 4H0v1.476h10z"/>
	</symbol>


	<!-- Play -->
	<symbol id="play" viewBox="0 0 20 20" x="0" y="0" ><path d="M18.606 9.551L2.224 1.361a.5.5 0 0 0-.724.448V18.19a.5.5 0 0 0 .724.447l16.382-8.193a.5.5 0 0 0 0-.894z" stroke="currentColor" fill="currentColor" fill-rule="evenodd" stroke-linecap="round" stroke-linejoin="round"/>
	</symbol>

	<!-- Attachment -->
	<symbol id="attachment" viewBox="0 0 20 20"><path d="M9.22 8.596v5.548c0 1.507 2.328 1.507 2.328 0V3.184c0-3.081-4.658-3.081-4.658 0v12.398c0 4.726 7.192 4.726 7.192 0V6.507a.445.445 0 0 1 .89 0v9.075c0 5.89-8.972 5.89-8.972 0V3.185c0-4.247 6.438-4.247 6.438 0v10.959c0 2.74-4.178 2.74-4.178 0V8.596a.48.48 0 1 1 .959 0z" fill="currentColor" fill-rule="nonzero"/></symbol>

	<!-- Search (Magnigying glass) -->
	<symbol id="search" viewBox="0 0 20 20"><g fill="none" fill-rule="evenodd" stroke="currentColor" stroke-width="2"><circle cx="8.215" cy="7.215" r="6.215"/><path stroke-linecap="round" d="M11.89 12.27l5.77 5.771"/></g></symbol>

	<!-- Phone -->
	<symbol id="phone" viewBox="0 0 16 16" x="0" y="0">
    <path fill="currentColor" fill-rule="nonzero" d="M3.222 6.929a13.387 13.387 0 0 0 5.858 5.853l1.956-1.96a.892.892 0 0 1 .902-.218c.995.33 2.066.507 3.173.507.493 0 .889.396.889.889v3.111a.886.886 0 0 1-.889.889C6.764 16 0 9.236 0 .889 0 .396.4 0 .889 0H4c.493 0 .889.396.889.889 0 1.107.178 2.178.507 3.173a.892.892 0 0 1-.218.902L3.222 6.93z"/>
	</symbol>


	<symbol id="call" viewBox="0 0 15 15" x="0" y="0">
    <path fill="currentColor" fill-rule="evenodd" d="M6.357 6.12l2.356 3.303 1.801-.403c.194-.044.4.027.525.176l2.036 2.452c.082.099.12.223.103.344a.434.434 0 0 1-.19.302l-1.732 1.177c-.216.128-.523.232-.978.136-1.261-.269-3.28-2.092-5.023-4.537-1.897-2.66-3.32-5.887-1.96-6.688l1.91-.98a.54.54 0 0 1 .38-.038c.13.036.239.117.306.226l1.643 2.692a.43.43 0 0 1-.037.509l-1.14 1.33z"/>
	</symbol>


	<symbol id="call_back" viewBox="0 0 15 15" x="0" y="0">
    <path fill="currentColor" fill-rule="evenodd" d="M14.817 1.978l-3.934 3.606H12.5c.345 0 .625.255.625.572 0 .317-.18.545-.524.545H9.532c-.052.013-.104.028-.159.028a.652.652 0 0 1-.442-.168c-.148-.136-.164-1.24-.048-3.31 0-.317.145-.532.49-.532.346 0 .625.256.625.573v1.481l3.935-3.605a.665.665 0 0 1 .884 0 .54.54 0 0 1 0 .81zM4.705 7.355l3.427 3.115 1.923-.874a.618.618 0 0 1 .63.072l2.866 2.244c.116.09.187.22.198.358a.49.49 0 0 1-.142.38l-1.66 1.718c-.211.194-.53.382-1.064.382-1.478 0-4.175-1.55-6.71-3.856-2.76-2.508-5.124-5.76-3.79-6.97L2.289 2.38a.622.622 0 0 1 .417-.13.596.596 0 0 1 .397.178l2.484 2.604c.151.16.182.386.08.575l-.962 1.747z"/>
	</symbol>

	<!-- Email -->
	<symbol id="email" viewBox="0 0 16 16" x="0" y="0">
    <path fill="currentcolor" fill-rule="nonzero" d="M15.333 1H.667C.267 1 0 1.267 0 1.667v12c0 .4.267.666.667.666h14.666c.4 0 .667-.266.667-.666v-12c0-.4-.267-.667-.667-.667zM13.8 4.2L8.467 8.867A1.236 1.236 0 0 1 8 9c-.133 0-.333-.067-.467-.133L2.2 4.2c-.267-.267-.333-.667-.067-.933C2.4 3 2.8 2.933 3.067 3.2l4.866 4.267L12.8 3.2c.267-.267.667-.2.933.067.334.266.334.666.067.933z"/>
	</symbol>


	<symbol id="star" viewBox="0 0 20 20" x="0" y="0">
		<path d="M10.6 1.78l2.27 4.59a.66.66 0 0 0 .5.36l5.07.74a.66.66 0 0 1 .36 1.13l-3.67 3.57a.66.66 0 0 0-.19.59l.87 5a.66.66 0 0 1-1 .7l-4.53-2.38a.66.66 0 0 0-.62 0l-4.5 2.43a.66.66 0 0 1-1-.7l.87-5a.66.66 0 0 0-.19-.59L1.2 8.6a.66.66 0 0 1 .37-1.13l5.07-.74a.66.66 0 0 0 .5-.36L9.4 1.78a.66.66 0 0 1 1.2 0z" fill="" stroke="currentcolor" stroke-miterlimit="10" stroke-width="1.06"/>
	</symbol>

	<!-- Enquire -->
	<symbol id="enquire" viewBox="0 0 13 13" x="0" y="0">
    <path fill="currentColor" fill-rule="evenodd" d="M12.981 2.256c-.004.024-.016.044-.023.068-.008.028-.016.056-.029.084a.497.497 0 0 1-.07.106c-.012.015-.018.033-.031.047L7.41 7.971c-.01.01-.022.013-.031.021-.027.024-.057.04-.09.06-.032.018-.063.035-.098.046-.012.004-.02.013-.033.016l-2.167.541a.536.536 0 0 1-.515-.142A.542.542 0 0 1 4.333 8l.542-2.165c.003-.012.012-.021.017-.033.01-.034.028-.066.046-.098a.52.52 0 0 1 .06-.088c.007-.01.01-.023.02-.032l5.418-5.41c.016-.016.036-.022.053-.035a.52.52 0 0 1 .091-.06.495.495 0 0 1 .104-.037c.02-.006.037-.018.058-.021.115-.017 1.137-.14 1.761.527.61.65.494 1.602.478 1.709zM6.56 2.087H1.093l-.026 9.83 9.866.003V6.457a.55.55 0 0 1 .547-.546c.3 0 .547.247.547.546v6.009c0 .299-.367.534-.666.534H.525A.521.521 0 0 1 0 12.466V1.54A.55.55 0 0 1 .547.995H6.56a.55.55 0 0 1 .547.546.55.55 0 0 1-.547.546z"/>
	</symbol>

	<!-- World -->
	<symbol id="world" viewBox="0 0 48 48" x="0" y="0">
		<path fill="currentColor" fill-rule="nonzero" d="M24 0c13.255 0 24 10.745 24 24S37.255 48 24 48 0 37.255 0 24 10.745 0 24 0zm-2.062 2.013l-.106.012a21.944 21.944 0 0 0-9.371 3.146c.492.425.948 1 1.384 1.695a14.754 14.754 0 0 1 1.01 1.924c.226.182.49.424.757.721.412.458.729.946.911 1.472.1.286.162.593.195.917a6.638 6.638 0 0 1-.091 1.852 21.16 21.16 0 0 1 .281.995c.088.342.163.676.223.995.211 1.122.231 1.934-.105 2.534-.314.56-.888.974-1.665 1.34a9.607 9.607 0 0 1-1.123.442 5.37 5.37 0 0 1-.773.887 4.582 4.582 0 0 1-2.39 1.195c-.892.096-1.475.67-1.475 1.675 0 .317.09.755.264 1.272.124.37.286.769.476 1.182a17.738 17.738 0 0 0 .649 1.269l.083.045c.253.14.507.29.748.449.299.196.558.39.77.587.26.243.452.486.564.772.114.29.196.66.263 1.111a14.711 14.711 0 0 1 .116 1.054c.131.257.29.606.45 1.02.265.689.453 1.375.527 2.038.097.86-.002 1.64-.364 2.303-.24.44-.656.74-1.228 1.014a6.873 6.873 0 0 1-.445.194l-.207.078-2.011 3.078A21.987 21.987 0 0 0 24 46.08c12.194 0 22.08-9.886 22.08-22.08 0-4.743-1.495-9.136-4.04-12.735l-.32.164c-.607.313-1.356.623-2.218.928a43.834 43.834 0 0 1-3.272.995 16.477 16.477 0 0 1-1.3 1.295c-.557.493-1.107.899-1.646 1.189-.702.378-1.372.556-2.02.458l-.12-.02c-.866-.162-1.72-.64-2.567-1.328a10.743 10.743 0 0 1-1.225-1.164l-.114-.132-.237-.281.012-.368.005-.229c.01-.546.008-1.142-.016-1.696a11.846 11.846 0 0 0-.074-.972l-.1.03c-.344.1-.584.158-.85.196-.725.101-1.375-.025-1.918-.492-.552-.475-.796-1.17-.85-2.004a6.243 6.243 0 0 1 .028-1.056 9.025 9.025 0 0 1-.47-.221c-.814-.412-1.35-.828-1.56-1.445-.198-.59-.07-1.206.269-2.05.06-.151.126-.307.205-.484l.256-.565zm6.721 16.286c.305.077.656.22 1.063.42a18.84 18.84 0 0 1 1.228.676 27.069 27.069 0 0 1 2.054.303c.874.17 1.562.367 2.046.627l.108.058 1.424 1.318a21.204 21.204 0 0 1 1.8.806c1.43.724 2.374 1.411 2.72 2.244.7 1.685-.946 5.36-2.624 6.208-1.31.663-2.355 1.54-2.767 2.198-.07.112-.62 1.611-.765 1.952-.583 1.378-1.224 2.276-2.198 2.662-.198.079-.512.263-.966.566-.273.183-1.34.926-1.463 1.011-.405.278-.75.505-1.082.711-1.606.997-2.814 1.435-3.903 1.131-2.545-.71-2.8-5.8-1.126-8.43.157-.247.203-.796.106-1.583-.039-.318-.097-.652-.182-1.079l-.159-.784a5.877 5.877 0 0 1-.105-.697s-.346-.4-1.077-1.097l-.024-.023c-1.294-1.234-1.647-1.653-1.647-2.443 0-.738.413-1.649 1.15-2.828.17-.27.354-.55.551-.838a34.76 34.76 0 0 1 1.58-2.119l.176-.215.263-.088c.07-.023.19-.063.351-.112.266-.083.548-.165.834-.243.225-.06.444-.116.655-.164.866-.198 1.495-.271 1.98-.148zM10.791 6.305C5.406 10.331 1.92 16.759 1.92 24c0 6.301 2.64 11.986 6.873 16.009l2.244-3.435.34-.1c.168-.049.445-.147.71-.274.232-.111.383-.22.373-.202.148-.27.198-.668.142-1.17-.054-.48-.2-1.015-.411-1.563a9.417 9.417 0 0 0-.42-.934l-.02-.039-.108-.192-.012-.22a12.85 12.85 0 0 0-.113-1.096 3.78 3.78 0 0 0-.152-.692c.014.034-.015-.003-.084-.066a4.073 4.073 0 0 0-.516-.39 9.525 9.525 0 0 0-.851-.495l-.047-.024-.25-.124-.144-.24a19.637 19.637 0 0 1-.878-1.681 13.813 13.813 0 0 1-.552-1.375C7.81 25 7.68 24.373 7.68 23.815c0-2.042 1.37-3.389 3.126-3.575.509-.09.96-.337 1.353-.702.268-.249.457-.497.56-.664l.043-.077.195-.37.404-.108a7.732 7.732 0 0 0 1.18-.438c.444-.21.745-.427.81-.544.032-.057.02-.569-.106-1.24a13.929 13.929 0 0 0-.197-.874 19.107 19.107 0 0 0-.305-1.061l-.017-.052-.087-.26.064-.268a4.25 4.25 0 0 0 .059-.32c.06-.398.082-.807.046-1.17a2.156 2.156 0 0 0-.099-.48c-.087-.253-.27-.535-.525-.818a4.63 4.63 0 0 0-.596-.558l-.072-.053-.23-.164-.106-.263a12.872 12.872 0 0 0-.962-1.87c-.338-.54-.68-.97-.998-1.25l-.135-.11zm16.317 14.014c-.184.042-.38.091-.582.146a21.743 21.743 0 0 0-.812.237 34.768 34.768 0 0 0-1.31 1.773c-.182.265-.352.523-.506.769-.505.808-.812 1.462-.853 1.75l-.005.06c0-.081.053.015.194.182.182.216.395.43.858.871l.024.024c1.292 1.232 1.615 1.605 1.668 2.35.006.09.03.24.074.466.025.13.135.664.157.776.094.47.159.846.205 1.22.147 1.194.07 2.123-.392 2.848-1.089 1.709-.909 5.29.023 5.55.385.108 1.212-.193 2.374-.913.304-.189.625-.4 1.008-.663.11-.076 1.19-.828 1.481-1.023.56-.375.966-.613 1.326-.756.347-.137.743-.69 1.138-1.625.067-.158.71-1.912.907-2.225.613-.978 1.924-2.08 3.526-2.89.827-.418 2.01-3.057 1.718-3.759-.101-.243-.809-.758-1.814-1.267a17.38 17.38 0 0 0-.49-.239v.747l-2.979-2.758c-.29-.13-.786-.267-1.408-.388a21.858 21.858 0 0 0-1.437-.224c-.296-.037-.524-.06-.65-.072l-.229-.02-.194-.123c-.05-.031-.145-.09-.273-.165a16.954 16.954 0 0 0-.98-.535 4.108 4.108 0 0 0-.688-.283c-.08-.02-.52.03-1.079.159zM24.01 1.92l-.081.275a4.795 4.795 0 0 1-.223.57l-.27.595c-.07.156-.127.29-.177.415-.16.4-.224.685-.23.72.016-.009.256.172.606.35a7.925 7.925 0 0 0 .927.394l.05.017.832.279-.202.853a4.442 4.442 0 0 0-.06.322 4.79 4.79 0 0 0-.056 1c.024.37.106.604.187.673.065.056.172.077.4.045.15-.021.315-.061.575-.137l.307-.09c.128-.037.234-.064.337-.086.347-.073.638-.082.946.028.844.303.964.99 1.043 2.852.023.552.027 1.131.019 1.674l.057.06c.242.248.51.497.792.728.62.505 1.217.838 1.707.93l.054.009c.167.025.454-.051.824-.25.39-.211.828-.534 1.285-.937a13.876 13.876 0 0 0 1.26-1.274l.046-.054.202-.242.306-.075.285-.073a41.923 41.923 0 0 0 3.103-.944 17.9 17.9 0 0 0 1.747-.709l.232-.115C36.792 4.949 30.75 1.92 24 1.92h.01z"/>
	</symbol>

	<!-- Download -->
	<symbol id="download" viewBox="0 0 12 12" x="0" y="0">
    <path fill="currentColor" fill-rule="nonzero" d="M11.566 10.154v1.384H.49v-1.384h11.076zM6.951 0v5.972l2.28-2.28.979.98-4.182 4.181-4.182-4.182.98-.979 2.279 2.28V0H6.95z"/>
	</symbol>

	<!-- SIDE PANEL ICONS -->

	<!-- select a property -->
	<symbol id="select-a-property" viewBox="0 0 19 22" x="0" y="0">
    	<path fill="currentColor" fill-rule="nonzero" d="M17.006 0v20.096H19V22H0v-1.904h1.994V0h15.012zM14.94 1.904H4.035v18.192h1.618v-3.694h7.694v3.694h1.592V1.904zM11.28 18.306H7.695v1.79h3.585v-1.79zm-2.606-6.343v1.925H6.61v-1.925h2.065zm3.097 0v1.925H9.706v-1.925h2.065zM8.674 8.112v1.925H6.61V8.112h2.065zm3.097 0v1.925H9.706V8.112h2.065zm-3.097-3.85v1.925H6.61V4.26h2.065zm3.097 0v1.925H9.706V4.26h2.065z"/>
	</symbol>

	<!-- appoint a tax specialist -->
	<symbol id="tax-specialist" viewBox="0 0 21 20" x="0" y="0">
    	<g fill="none" fill-rule="evenodd" stroke="currentColor" stroke-linecap="square" stroke-width="2">
	        <path d="M14.714 9.07h5.143v9.428H1V9.069h4.286"/>
	        <path d="M7.857 11.64H5.286V9.07L13 1.354l2.571 2.571zM5.286 15.07H15.57"/>
	    </g>
	</symbol>

	<!-- appoint property management -->
	<symbol id="appoint-property-management" viewBox="0 0 20 20" x="0" y="0">
    	<g fill="none" fill-rule="evenodd" stroke="currentColor" stroke-width="2">
	        <path d="M7.315 12.455h-.588A5.727 5.727 0 0 0 1 18.182V19h18v-.818a5.727 5.727 0 0 0-5.728-5.727h-.588M5.101 6.524a4.496 4.496 0 0 0 6.944-1.613 4.51 4.51 0 0 0 2.864 2.46"/>
	        <path stroke-linecap="square" d="M10 13.273a4.91 4.91 0 0 1-4.91-4.91V5.91a4.91 4.91 0 0 1 9.82 0v2.455A4.91 4.91 0 0 1 10 13.273zM14.91 15.727h-1.637"/>
	    </g>
	</symbol>

	<!-- settlement handover -->
	<symbol id="settlement-handover" viewBox="0 0 16 20" x="0" y="0">
    	<g fill="none" fill-rule="evenodd" stroke="currentColor" stroke-linecap="square" stroke-width="2">
	        <path d="M7.545 1a4.091 4.091 0 0 0-4.09 4.09v2.455h8.181V5.091A4.091 4.091 0 0 0 7.546 1zM1 19h13.09V7.545H1z"/>
	        <path d="M5.91 12.455a1.637 1.637 0 1 1 3.273 0 1.637 1.637 0 0 1-3.274 0zM7.545 14.09v1.637"/>
	    </g>
	</symbol>

	<!-- settlement inspection -->
	<symbol id="settlement-inspection" viewBox="0 0 21 21" x="0" y="0">
    	<g fill="none" fill-rule="evenodd" stroke="currentColor" stroke-linecap="square" stroke-width="2">
	        <path d="M19 19l-2.571-2.571M1 8.714A7.714 7.714 0 0 1 8.714 1a7.714 7.714 0 0 1 7.715 7.714 7.714 7.714 0 0 1-7.715 7.715A7.714 7.714 0 0 1 1 8.714zM4.514 7.857a4.29 4.29 0 0 1 3.343-3.343"/>
	    </g>
	</symbol>

	<!-- appoint a lawyer -->
	<symbol id="appoint-a-lawyer" viewBox="0 0 20 20" x="0" y="0">
    	<g fill="none" fill-rule="evenodd" stroke="currentColor" stroke-width="2">
	        <path d="M12.352 12.66l-1.534 3.067H9.182L7.658 12.68"/>
	        <path d="M7.315 12.455h-.588A5.727 5.727 0 0 0 1 18.182V19h18v-.818a5.727 5.727 0 0 0-5.728-5.727h-.588M5.101 6.524a4.496 4.496 0 0 0 6.944-1.613 4.51 4.51 0 0 0 2.864 2.46"/>
	        <path stroke-linecap="square" d="M10 13.273a4.91 4.91 0 0 1-4.91-4.91V5.91a4.91 4.91 0 0 1 9.82 0v2.455A4.91 4.91 0 0 1 10 13.273z"/>
	        <path d="M7.545 19l1.637-3.273M10.818 15.727L12.455 19"/>
	    </g>
	</symbol>

	<!-- arrange finance -->
	<symbol id="arrange-finance" viewBox="0 0 20 20" x="0" y="0">
    	<g fill="none" fill-rule="evenodd" stroke="currentColor" stroke-width="2">
	        <path stroke-linecap="square" d="M4.429 4.429V3.57A2.571 2.571 0 0 1 7 1h5.143a2.571 2.571 0 0 1 2.571 2.571v.858"/>
	        <path d="M10.893 13H1V4.429h18V13h-2.607"/>
	        <path stroke-linecap="square" d="M4.429 13a6 6 0 1 0 12 0V7a2.571 2.571 0 0 0-2.572 2.571v1.715a3.429 3.429 0 0 0-3.428 3.428"/>
	        <path stroke-linecap="square" d="M7 8.714a1.715 1.715 0 1 1 3.43.002A1.715 1.715 0 0 1 7 8.714z"/>
	    </g>
	</symbol>

	<!-- arrange-pre-settlement-inspection -->
	<symbol id="arrange-pre-settlement-inspection" viewBox="0 0 21 21" x="0" y="0">
    	<g fill="none" fill-rule="evenodd" stroke="currentColor" stroke-linecap="square" stroke-width="2">
	        <path d="M19 19l-2.571-2.571M1 8.714A7.714 7.714 0 0 1 8.714 1a7.714 7.714 0 0 1 7.715 7.714 7.714 7.714 0 0 1-7.715 7.715A7.714 7.714 0 0 1 1 8.714zM4.514 7.857a4.29 4.29 0 0 1 3.343-3.343"/>
	    </g>
	</symbol>

	<!-- sign-contract-pay-deposit -->
	<symbol id="sign-contract-pay-deposit" viewBox="0 0 20 20" x="0" y="0">
    	<g fill="none" fill-rule="evenodd" stroke="currentColor" stroke-width="2">
	        <path d="M15.617 9.12v9.745H1V1h14.617v3.248"/>
	        <path d="M9.932 14.805H7.496v-2.437l8.12-8.12 2.437 2.436z"/>
	    </g>
	</symbol>


	<!-- reserve-property -->
	<symbol id="reserve-property" viewBox="0 0 18 20" x="0" y="0">
    	<g fill="none" fill-rule="evenodd">
	        <path fill="currentColor" stroke="currentColor" stroke-width="2" d="M11.667 19v-4.91H17"/>
	        <path stroke="currentColor" stroke-linecap="square" stroke-width="2" d="M11.667 19H1V1h16v13.09z"/>
	        <path fill="currentColor" stroke="currentColor" stroke-linecap="square" stroke-width="2" d="M4.556 5.09h8.888M4.556 9.182h8.888M4.556 13.273H8.11"/>
	    </g>
	</symbol>

	<!-- building-community-management -->
	<symbol id="building-community-management"  viewBox="0 0 16 20" x="0" y="0">
    	<g fill="none" fill-rule="evenodd" stroke="currentColor" stroke-linecap="square" stroke-width="2">
	        <path d="M10.818 3.455h3.273V19H1V3.455h3.273"/>
	        <path d="M9.182 2.636a1.637 1.637 0 0 0-3.273 0H4.273V5.91h6.545V2.636H9.182zM4.273 9.182h6.545M4.273 12.455h6.545M4.273 15.727h2.454"/>
	    </g>
	</symbol>

	<svg id="person" viewBox="0 0 16 16" x="0" y="0">
    <g fill="currentColor" fill-rule="nonzero">
			<path d="M8 8.667c2.206 0 4-1.794 4-4V4c0-2.206-1.794-4-4-4S4 1.794 4 4v.667c0 2.206 1.794 4 4 4zM13.325 10.652c-3.421-.87-7.228-.87-10.65 0C1.1 11.052 0 12.373 0 13.867v2.13h16v-2.13c0-1.495-1.1-2.816-2.675-3.216z"/>
    </g>
	</svg>



</svg>