<svg class="pp-logo" xmlns="http://www.w3.org/2000/svg" viewBox="0 0 265.8 137.3"><path fill="#013e51" d="M265.8 115.5H244l-10.1-17.3c-1.2-2 .3-4.5 2.6-4.5h16.6l12.7 21.8z"></path><path fill="#5CFFB2" d="M236.5 137.3h16.6l12.8-21.8h-21.8L234 132.8c-1.3 2 .2 4.5 2.5 4.5z"></path><path fill="#013e51" d="M0 10h4v6.1h.1c.6-1.2 1.4-2.2 2.3-3.1s2-1.6 3.1-2.2c1.1-.6 2.2-1 3.5-1.3 1.2-.3 2.4-.4 3.6-.4 2.4 0 4.6.5 6.5 1.4 2 .9 3.7 2.2 5.2 3.8 1.5 1.6 2.6 3.6 3.4 5.8.8 2.2 1.2 4.7 1.2 7.3 0 2.7-.4 5.1-1.2 7.3-.8 2.2-1.9 4.2-3.4 5.8-1.5 1.6-3.2 2.9-5.2 3.8-2 .9-4.2 1.4-6.5 1.4-1.2 0-2.3-.1-3.6-.4-1.2-.3-2.4-.7-3.5-1.3-1.1-.6-2.1-1.3-3.1-2.2-.9-.9-1.7-1.9-2.3-3.1H4v23.2H0V10zm3.6 17.3c0 2 .3 3.8 1 5.5.7 1.7 1.6 3.2 2.8 4.5 1.2 1.3 2.5 2.3 4.1 3 1.6.8 3.3 1.1 5.1 1.1 1.9 0 3.6-.4 5.1-1.1 1.5-.8 2.8-1.8 3.9-3 1.1-1.3 1.9-2.8 2.4-4.5.6-1.7.8-3.6.8-5.5 0-2-.3-3.8-.8-5.5-.6-1.7-1.4-3.2-2.4-4.5s-2.4-2.3-3.9-3c-1.5-.8-3.2-1.1-5.1-1.1-1.8 0-3.5.4-5.1 1.1-1.6.8-2.9 1.8-4.1 3-1.2 1.3-2.1 2.8-2.8 4.5-.6 1.7-1 3.6-1 5.5zM41.2 19.7c0-.6 0-1.4-.1-2.4 0-.9-.1-1.9-.1-2.8 0-1-.1-1.8-.1-2.7 0-.8-.1-1.5-.1-1.9h4c0 1.3.1 2.6.1 3.8 0 1.2.1 2 .2 2.3 1-2.1 2.3-3.7 4-5 1.6-1.3 3.6-2 5.9-2 .4 0 .8 0 1.2.1l1.2.3-.5 4.4c-.5-.2-1.1-.3-1.5-.3-1.7 0-3.3.3-4.5.9-1.3.6-2.3 1.5-3.2 2.6-.8 1.1-1.4 2.4-1.8 3.9-.4 1.5-.6 3.1-.6 4.8v18.9h-4V19.7zM59.9 27.3c0-2.7.4-5.1 1.2-7.3.8-2.2 1.9-4.2 3.4-5.8 1.4-1.6 3.2-2.9 5.2-3.8 2-.9 4.2-1.4 6.6-1.4 2.4 0 4.6.5 6.5 1.4 2 .9 3.7 2.2 5.2 3.8 1.5 1.6 2.6 3.6 3.4 5.8.8 2.2 1.2 4.7 1.2 7.3 0 2.7-.4 5.1-1.2 7.3-.8 2.2-1.9 4.2-3.4 5.8-1.5 1.6-3.2 2.9-5.2 3.8-2 .9-4.2 1.4-6.5 1.4-2.4 0-4.6-.5-6.6-1.4-2-.9-3.7-2.2-5.2-3.8-1.4-1.6-2.5-3.6-3.4-5.8-.8-2.2-1.2-4.6-1.2-7.3zm4 0c0 2 .3 3.8.8 5.5.6 1.7 1.4 3.2 2.4 4.5 1.1 1.3 2.4 2.3 3.9 3 1.5.8 3.2 1.1 5.1 1.1s3.6-.4 5.1-1.1c1.5-.8 2.8-1.8 3.9-3 1.1-1.3 1.9-2.8 2.4-4.5.6-1.7.8-3.6.8-5.5 0-2-.3-3.8-.8-5.5-.6-1.7-1.4-3.2-2.4-4.5s-2.4-2.3-3.9-3c-1.5-.8-3.2-1.1-5.1-1.1s-3.6.4-5.1 1.1c-1.5.8-2.8 1.8-3.9 3-1.1 1.3-1.9 2.8-2.4 4.5-.5 1.7-.8 3.6-.8 5.5zM100 10h4v6.1h.1c.6-1.2 1.4-2.2 2.3-3.1s2-1.6 3.1-2.2c1.1-.6 2.2-1 3.5-1.3 1.2-.3 2.4-.4 3.6-.4 2.4 0 4.6.5 6.5 1.4 2 .9 3.7 2.2 5.2 3.8 1.5 1.6 2.6 3.6 3.4 5.8.8 2.2 1.2 4.7 1.2 7.3 0 2.7-.4 5.1-1.2 7.3-.8 2.2-1.9 4.2-3.4 5.8-1.5 1.6-3.2 2.9-5.2 3.8-2 .9-4.2 1.4-6.5 1.4-1.2 0-2.3-.1-3.6-.4-1.2-.3-2.4-.7-3.5-1.3-1.1-.6-2.1-1.3-3.1-2.2-.9-.9-1.7-1.9-2.3-3.1h-.1v23.2h-4V10zm3.6 17.3c0 2 .3 3.8 1 5.5.7 1.7 1.6 3.2 2.8 4.5 1.2 1.3 2.5 2.3 4.1 3 1.6.8 3.3 1.1 5.1 1.1 1.9 0 3.6-.4 5.1-1.1 1.5-.8 2.8-1.8 3.9-3 1.1-1.3 1.9-2.8 2.4-4.5.6-1.7.8-3.6.8-5.5 0-2-.3-3.8-.8-5.5-.6-1.7-1.4-3.2-2.4-4.5-1.1-1.3-2.4-2.3-3.9-3-1.5-.8-3.2-1.1-5.1-1.1-1.8 0-3.5.4-5.1 1.1-1.6.8-2.9 1.8-4.1 3-1.2 1.3-2.1 2.8-2.8 4.5-.7 1.7-1 3.6-1 5.5zM168.5 38.1c-1.6 2.7-3.5 4.6-5.8 5.7-2.3 1.2-4.8 1.7-7.6 1.7-2.4 0-4.5-.5-6.4-1.4-1.9-.9-3.6-2.2-5-3.8-1.4-1.6-2.4-3.6-3.2-5.8-.7-2.2-1.1-4.7-1.1-7.4 0-2.6.4-5 1.1-7.2.8-2.2 1.8-4.1 3.2-5.7 1.4-1.6 3-2.9 4.9-3.8 1.9-.9 4-1.4 6.2-1.4 2.4 0 4.5.5 6.3 1.4 1.8.9 3.3 2.2 4.6 3.7 1.2 1.5 2.2 3.3 2.8 5.2.6 2 .9 3.9.9 5.9v3.2h-26c0 1 .2 2.2.5 3.6.3 1.5.9 2.9 1.8 4.3s2.1 2.6 3.6 3.6 3.4 1.5 5.8 1.5c2.1 0 4-.5 6-1.7 1.9-1.1 3.4-2.6 4.4-4.5l3 2.9zm-3.1-13.7c0-1.6-.3-3-.8-4.4-.6-1.4-1.3-2.5-2.3-3.6-1-1-2.1-1.8-3.4-2.4-1.3-.6-2.7-.9-4.2-.9-2.2 0-4 .5-5.5 1.5s-2.6 2.2-3.5 3.5c-.9 1.3-1.5 2.6-1.8 3.8-.4 1.2-.5 2.1-.5 2.5h22zM177.8 19.7c0-.6 0-1.4-.1-2.4 0-.9-.1-1.9-.1-2.8 0-1-.1-1.8-.1-2.7 0-.8-.1-1.5-.1-1.9h4c0 1.3.1 2.6.1 3.8 0 1.2.1 2 .2 2.3 1-2.1 2.3-3.7 4-5 1.6-1.3 3.6-2 5.9-2 .4 0 .8 0 1.2.1l1.2.3-.5 4.4c-.5-.2-1.1-.3-1.5-.3-1.7 0-3.3.3-4.5.9-1.3.6-2.3 1.5-3.2 2.6-.8 1.1-1.4 2.4-1.8 3.9-.4 1.5-.6 3.1-.6 4.8v18.9h-4V19.7zM217.3 14h-8.9v22.6c0 1.6.4 2.8 1.1 3.6.8.9 1.8 1.3 3.2 1.3.8 0 1.5-.1 2.3-.3.8-.2 1.5-.5 2.2-.9l.3 4.1c-.8.3-1.6.6-2.6.8-1 .2-1.9.4-2.6.4-1.4 0-2.7-.2-3.7-.7-1-.5-1.9-1.1-2.5-1.9-.6-.8-1.1-1.7-1.4-2.8-.3-1.1-.4-2.2-.4-3.5V14h-6.7v-4h6.7V0h4v10h8.9v4zM233.8 55.4c-.8 2.3-1.8 4-3.2 5.3-1.3 1.3-3.1 2-5.4 2-.7 0-1.3-.1-2-.2s-1.3-.3-1.9-.5l.4-4.2 1.8.6c.6.2 1.2.3 1.8.3.7 0 1.4-.2 1.9-.5.6-.4 1-.8 1.4-1.4.4-.6.7-1.2 1-1.8.3-.7.5-1.4.8-2.1l2.8-8L220.8 10h4.5l10.3 29.2 10-29.2h4.3l-16.1 45.4zM.1 80.1h6v5.1h.1c1.2-1.9 2.8-3.4 4.8-4.4 2-1.1 4.1-1.6 6.3-1.6 2.5 0 4.7.5 6.7 1.4 2 1 3.7 2.3 5.1 4 1.4 1.7 2.5 3.7 3.3 6 .8 2.3 1.1 4.7 1.1 7.3 0 2.7-.4 5.1-1.1 7.4-.8 2.3-1.8 4.3-3.3 5.9-1.4 1.7-3.1 3-5.1 3.9-2 .9-4.2 1.4-6.7 1.4-2.3 0-4.4-.5-6.4-1.6s-3.6-2.5-4.6-4.4h-.2v26.3h-6V80.1zm16.5 5.4c-1.6 0-3.1.3-4.4.9-1.3.6-2.4 1.5-3.3 2.6-.9 1.1-1.6 2.4-2.1 3.9s-.7 3.2-.7 5 .2 3.5.7 5c.5 1.5 1.2 2.8 2.1 3.9.9 1.1 2 1.9 3.3 2.6 1.3.6 2.8.9 4.4.9 1.6 0 3.1-.3 4.4-.9 1.3-.6 2.4-1.5 3.3-2.6.9-1.1 1.6-2.4 2.1-3.9s.7-3.2.7-5-.2-3.5-.7-5c-.5-1.5-1.2-2.8-2.1-3.9-.9-1.1-2-1.9-3.3-2.6-1.4-.6-2.8-.9-4.4-.9zM40.4 80.1h6v5.5h.1c.4-1 .9-1.8 1.6-2.6.7-.8 1.4-1.4 2.2-2 .8-.6 1.7-1 2.7-1.3 1-.3 2-.5 3-.5s1.9.2 2.7.5l-.3 7.3c-.5-.2-1-.3-1.5-.4-.5-.1-1-.2-1.5-.2-3 0-5.2.9-6.8 2.8-1.6 1.9-2.3 4.7-2.3 8.6v17.9h-6V80.1zM61.8 97.9c0-2.6.4-5 1.3-7.3s2.1-4.2 3.6-5.9c1.5-1.7 3.3-3 5.4-4 2.1-1 4.3-1.5 6.6-1.5 2.4 0 4.6.5 6.6 1.5 2.1 1 3.8 2.3 5.4 4 1.5 1.7 2.7 3.7 3.6 5.9.9 2.3 1.3 4.7 1.3 7.3s-.4 5-1.3 7.3-2.1 4.3-3.6 5.9c-1.5 1.7-3.3 3-5.4 4-2.1 1-4.3 1.5-6.6 1.5-2.4 0-4.6-.5-6.6-1.5-2.1-1-3.8-2.3-5.4-4-1.5-1.7-2.7-3.7-3.6-5.9-.9-2.3-1.3-4.7-1.3-7.3zm6.4 0c0 1.8.2 3.5.7 5 .5 1.5 1.2 2.8 2.1 3.9.9 1.1 2 1.9 3.3 2.6 1.3.6 2.8.9 4.4.9s3.1-.3 4.4-.9c1.3-.6 2.4-1.5 3.3-2.6.9-1.1 1.6-2.4 2.1-3.9s.7-3.2.7-5-.2-3.5-.7-5c-.5-1.5-1.2-2.8-2.1-3.9-.9-1.1-2-1.9-3.3-2.6-1.3-.6-2.8-.9-4.4-.9s-3.1.3-4.4.9c-1.3.7-2.4 1.5-3.3 2.6-.9 1.1-1.6 2.4-2.1 3.9-.4 1.5-.7 3.2-.7 5zM119.4 89c-.7-1-1.6-1.8-2.6-2.5-1.1-.7-2.3-1-3.9-1-1.4 0-2.7.3-3.7 1-1.1.7-1.6 1.7-1.6 3 0 1.1.3 1.9.9 2.6.6.7 1.3 1.2 2.1 1.6.8.4 1.7.7 2.7.9.9.2 1.7.4 2.4.5 1.3.4 2.5.8 3.7 1.3 1.1.5 2.1 1.2 3 2 .8.8 1.5 1.8 1.9 2.9.5 1.2.7 2.6.7 4.2 0 2-.4 3.7-1.1 5.1-.8 1.4-1.7 2.6-3 3.5-1.2.9-2.6 1.6-4.1 2-1.5.4-3.1.6-4.7.6-2.6 0-5-.5-6.9-1.4-2-.9-3.8-2.6-5.3-5l4.6-4.2c1 1.1 2.1 2.1 3.3 2.9 1.2.9 2.7 1.3 4.4 1.3.8 0 1.5-.1 2.3-.3.8-.2 1.5-.5 2.1-.8.6-.4 1.1-.8 1.5-1.4.4-.6.6-1.2.6-2 0-1-.3-1.8-.8-2.5-.6-.6-1.2-1.2-2-1.5-.8-.4-1.6-.7-2.5-.9-.9-.2-1.6-.4-2.3-.6-1.3-.3-2.5-.8-3.7-1.2-1.2-.5-2.2-1.1-3.1-1.8-.9-.8-1.6-1.7-2.1-2.9s-.8-2.6-.8-4.3c0-1.9.3-3.5 1-4.8.7-1.4 1.6-2.5 2.8-3.4 1.1-.9 2.4-1.6 3.9-2 1.5-.5 2.9-.7 4.4-.7 2.1 0 4.2.5 6.2 1.4 2 .9 3.5 2.4 4.7 4.5l-5 3.9zM131.6 80.1h6v5.1h.1c1.2-1.9 2.8-3.4 4.8-4.4 2-1.1 4.1-1.6 6.3-1.6 2.5 0 4.7.5 6.7 1.4 2 1 3.7 2.3 5.1 4 1.4 1.7 2.5 3.7 3.3 6 .8 2.3 1.1 4.7 1.1 7.3 0 2.7-.4 5.1-1.1 7.4-.8 2.3-1.8 4.3-3.3 5.9-1.4 1.7-3.1 3-5.1 3.9-2 .9-4.2 1.4-6.7 1.4-2.3 0-4.4-.5-6.4-1.6s-3.6-2.5-4.6-4.4h-.1v26.3h-6V80.1zm16.5 5.4c-1.6 0-3.1.3-4.4.9-1.3.6-2.4 1.5-3.3 2.6-.9 1.1-1.6 2.4-2.1 3.9s-.7 3.2-.7 5 .2 3.5.7 5c.5 1.5 1.2 2.8 2.1 3.9.9 1.1 2 1.9 3.3 2.6 1.3.6 2.8.9 4.4.9s3.1-.3 4.4-.9c1.3-.6 2.4-1.5 3.3-2.6.9-1.1 1.6-2.4 2.1-3.9s.7-3.2.7-5-.2-3.5-.7-5-1.2-2.8-2.1-3.9c-.9-1.1-2-1.9-3.3-2.6-1.3-.6-2.8-.9-4.4-.9zM176.5 100.4c0 1.6.3 3 .9 4.2.6 1.3 1.4 2.4 2.4 3.3 1 .9 2.1 1.6 3.4 2.1 1.3.5 2.6.8 4 .8 1.9 0 3.5-.5 4.9-1.5 1.4-1 2.7-2.3 3.8-3.9l4.6 3.9c-3.4 4.9-8 7.3-14.1 7.3-2.5 0-4.8-.5-6.8-1.4-2-.9-3.8-2.3-5.2-3.9-1.4-1.7-2.5-3.7-3.3-5.9-.8-2.3-1.1-4.7-1.1-7.4s.4-5.1 1.2-7.4c.8-2.3 2-4.3 3.4-5.9 1.5-1.7 3.2-3 5.2-3.9s4.2-1.4 6.6-1.4c2.8 0 5.2.6 7.1 1.7 1.9 1.1 3.5 2.5 4.8 4.3 1.3 1.8 2.2 3.8 2.7 6 .6 2.2.8 4.5.8 6.8v2.4h-25.3zm19-5.5c0-1.5-.3-2.9-.6-4.1-.4-1.3-1-2.3-1.7-3.3-.8-.9-1.7-1.7-2.9-2.2-1.1-.5-2.5-.8-4-.8s-2.8.3-4.1.9c-1.2.6-2.3 1.4-3.1 2.4-.8 1-1.5 2.1-2 3.3-.5 1.2-.7 2.4-.7 3.6h19.1zM208.6 80.1h6v5.5h.1c.4-1 .9-1.8 1.6-2.6.7-.8 1.4-1.4 2.2-2 .8-.6 1.7-1 2.7-1.3 1-.3 2-.5 3-.5s1.9.2 2.7.5l-.3 7.3c-.5-.2-1-.3-1.5-.4-.5-.1-1-.2-1.5-.2-3 0-5.2.9-6.8 2.8-1.6 1.9-2.3 4.7-2.3 8.6v17.9h-6V80.1z"></path></svg>