<svg xmlns="http://www.w3.org/2000/svg" width="144" height="74" viewBox="0 0 144 74">
    <g fill="none" fill-rule="nonzero">
        <path fill="#FFF" d="M144 62h-12.145l-5.626-9.513a1.636 1.636 0 0 1-.007-1.656c.298-.514.852-.83 1.451-.83l9.23-.001L144 62z"/>
        <path fill="#5BFFB2" d="M127.673 74h9.23L144 62h-12.146l-5.625 9.513a1.636 1.636 0 0 0-.007 1.657c.298.513.852.83 1.451.83z"/>
        <path fill="#FFF" d="M9.283 42.823a8.144 8.144 0 0 1 3.58.772 7.996 7.996 0 0 1 2.736 2.151 9.99 9.99 0 0 1 1.745 3.228c.415 1.277.621 2.614.612 3.958a12.66 12.66 0 0 1-.612 3.998 9.736 9.736 0 0 1-1.745 3.207 8.08 8.08 0 0 1-2.735 2.132 8.155 8.155 0 0 1-3.58.77 7.171 7.171 0 0 1-3.455-.872 6.161 6.161 0 0 1-2.483-2.375h-.071V74H.036V43.31h3.239v2.761h.071a6.397 6.397 0 0 1 2.573-2.395 7.197 7.197 0 0 1 3.364-.853zm70.563 0a8.144 8.144 0 0 1 3.58.772 7.996 7.996 0 0 1 2.735 2.151 9.973 9.973 0 0 1 1.745 3.228 12.51 12.51 0 0 1 .612 3.958 12.637 12.637 0 0 1-.612 3.998 9.72 9.72 0 0 1-1.745 3.207 8.08 8.08 0 0 1-2.735 2.132 8.155 8.155 0 0 1-3.58.77 7.171 7.171 0 0 1-3.454-.872 6.156 6.156 0 0 1-2.483-2.375h-.073V74h-3.238V43.31h3.238v2.761h.073a6.397 6.397 0 0 1 2.573-2.395 7.195 7.195 0 0 1 3.364-.853zm24.018.894a7.837 7.837 0 0 1 2.573 2.333 9.73 9.73 0 0 1 1.458 3.248c.299 1.202.45 2.436.45 3.674v1.3H94.67c-.01.791.156 1.575.485 2.293a5.63 5.63 0 0 0 1.278 1.766 5.736 5.736 0 0 0 1.835 1.137c.688.27 1.42.407 2.159.405a4.418 4.418 0 0 0 2.627-.791 8.91 8.91 0 0 0 2.051-2.09l2.447 2.11a8.644 8.644 0 0 1-7.557 3.938 8.47 8.47 0 0 1-3.652-.771 7.976 7.976 0 0 1-2.77-2.132 9.705 9.705 0 0 1-1.746-3.207 12.614 12.614 0 0 1-.612-3.998 11.698 11.698 0 0 1 .666-3.999 10.124 10.124 0 0 1 1.835-3.207 8.409 8.409 0 0 1 2.789-2.13 8.088 8.088 0 0 1 3.527-.773 7.63 7.63 0 0 1 3.831.894zm-39.814-.162a5.476 5.476 0 0 1 2.518 2.435L64.05 48.14a5.18 5.18 0 0 0-1.421-1.36 3.729 3.729 0 0 0-2.07-.547 3.59 3.59 0 0 0-1.997.547c-.55.34-.873.954-.845 1.604a1.957 1.957 0 0 0 .485 1.38 3.83 3.83 0 0 0 1.152.853c.452.22.93.383 1.421.487.504.108.936.203 1.296.284.67.18 1.325.411 1.96.69a5.342 5.342 0 0 1 1.584 1.056c.454.448.81.987 1.043 1.583.232.622.36 1.278.378 1.941v.332a5.877 5.877 0 0 1-.612 2.781 5.582 5.582 0 0 1-1.583 1.887 6.261 6.261 0 0 1-2.212 1.056 9.845 9.845 0 0 1-2.502.325 8.892 8.892 0 0 1-3.723-.73 6.948 6.948 0 0 1-2.862-2.68l2.447-2.273a10.375 10.375 0 0 0 1.763 1.583 3.99 3.99 0 0 0 2.375.69 5.619 5.619 0 0 0 1.242-.142 3.555 3.555 0 0 0 1.116-.447c.316-.196.586-.459.79-.77.207-.32.314-.695.307-1.077a1.996 1.996 0 0 0-.45-1.34 3.303 3.303 0 0 0-1.08-.832 7.256 7.256 0 0 0-1.33-.487 39.038 39.038 0 0 0-1.242-.304 19.35 19.35 0 0 1-1.98-.65 5.792 5.792 0 0 1-1.654-.974 4.397 4.397 0 0 1-1.152-1.543 5.496 5.496 0 0 1-.432-2.313 5.79 5.79 0 0 1 .558-2.619 5.42 5.42 0 0 1 1.476-1.847 6.376 6.376 0 0 1 2.087-1.096 7.832 7.832 0 0 1 5.667.366zm-18.28.06a9.01 9.01 0 0 1 2.88 2.172c.828.943 1.48 2.03 1.924 3.207.475 1.257.713 2.593.702 3.938a11.059 11.059 0 0 1-.702 3.958 10.1 10.1 0 0 1-1.925 3.207 9.144 9.144 0 0 1-2.878 2.151 8.415 8.415 0 0 1-7.125 0 9.126 9.126 0 0 1-2.878-2.151 10.084 10.084 0 0 1-1.925-3.207 11.041 11.041 0 0 1-.702-3.958c-.012-1.345.226-2.68.702-3.938a10.41 10.41 0 0 1 1.925-3.207 8.993 8.993 0 0 1 2.878-2.172 8.407 8.407 0 0 1 7.125 0zm74.521-.792c.49-.006.978.076 1.439.244l-.144 3.938a8.537 8.537 0 0 0-.791-.203 3.98 3.98 0 0 0-.792-.081 4.478 4.478 0 0 0-3.635 1.501c-.84 1.002-1.26 2.558-1.26 4.67v9.66h-3.238V43.31h3.239v2.964h.072c.213-.51.505-.982.864-1.4a5.945 5.945 0 0 1 1.205-1.076c.452-.302.942-.54 1.457-.71a5.002 5.002 0 0 1 1.584-.265zm-90.21 0c.491-.006.978.076 1.44.244l-.143 3.938a8.66 8.66 0 0 0-.792-.203 3.975 3.975 0 0 0-.792-.081 4.478 4.478 0 0 0-3.635 1.501c-.84 1.002-1.259 2.558-1.258 4.67v9.66h-3.239V43.31h3.239v2.964h.071c.213-.51.505-.982.864-1.4a5.945 5.945 0 0 1 1.205-1.076c.452-.302.943-.54 1.458-.71a4.994 4.994 0 0 1 1.583-.265zm-21.194 3.41a5.276 5.276 0 0 0-2.338.508 5.201 5.201 0 0 0-1.764 1.38 6.3 6.3 0 0 0-1.115 2.111 9.419 9.419 0 0 0 0 5.4c.234.769.612 1.485 1.115 2.11a5.182 5.182 0 0 0 4.102 1.888 5.268 5.268 0 0 0 2.34-.508 5.197 5.197 0 0 0 1.763-1.38 6.302 6.302 0 0 0 1.116-2.11 9.419 9.419 0 0 0 0-5.4 6.33 6.33 0 0 0-1.116-2.11 5.217 5.217 0 0 0-1.763-1.381 5.28 5.28 0 0 0-2.34-.507zm30.983.508a5.202 5.202 0 0 0-1.764 1.38 6.272 6.272 0 0 0-1.115 2.111 8.794 8.794 0 0 0-.396 2.7c-.01.915.124 1.826.396 2.7.233.769.612 1.486 1.115 2.11a5.182 5.182 0 0 0 1.764 1.38 5.638 5.638 0 0 0 4.677 0 5.197 5.197 0 0 0 1.764-1.38 6.273 6.273 0 0 0 1.115-2.11 9.4 9.4 0 0 0 0-5.4 6.3 6.3 0 0 0-1.115-2.11 5.217 5.217 0 0 0-1.764-1.381 5.646 5.646 0 0 0-4.677 0zm39.58-.507a5.276 5.276 0 0 0-2.339.507 5.201 5.201 0 0 0-1.763 1.38 6.3 6.3 0 0 0-1.116 2.111 9.4 9.4 0 0 0 0 5.4c.234.769.613 1.485 1.116 2.11a5.182 5.182 0 0 0 1.763 1.38 5.638 5.638 0 0 0 4.678 0 5.182 5.182 0 0 0 1.763-1.38 6.273 6.273 0 0 0 1.115-2.11 9.4 9.4 0 0 0 0-5.4 6.3 6.3 0 0 0-1.115-2.11 5.202 5.202 0 0 0-1.763-1.381 5.276 5.276 0 0 0-2.34-.507zm20.51-.488a4.702 4.702 0 0 0-2.177.508 5.347 5.347 0 0 0-1.673 1.32 6.212 6.212 0 0 0-1.062 1.806 5.517 5.517 0 0 0-.377 1.968h10.22a8.62 8.62 0 0 0-.343-2.232 5.11 5.11 0 0 0-.917-1.767 4.254 4.254 0 0 0-1.53-1.176 5.025 5.025 0 0 0-2.14-.427zM120.83 5.4l5.506 15.792 5.361-15.792H134l-8.564 24.56a7.116 7.116 0 0 1-1.69 2.882 3.94 3.94 0 0 1-2.88 1.055c-.362 0-.723-.034-1.079-.101a8.623 8.623 0 0 1-1.044-.264l.216-2.273c.312.108.63.209.954.304.321.095.655.142.99.142.361.006.717-.092 1.025-.284.302-.191.564-.44.773-.73.223-.31.41-.643.558-.995.156-.365.294-.737.414-1.116l1.511-4.344-6.764-18.836h2.41zM8.887 4.912a8.352 8.352 0 0 1 3.51.73c1.056.48 2 1.179 2.77 2.05a9.482 9.482 0 0 1 1.817 3.126c.443 1.272.662 2.611.648 3.958a11.637 11.637 0 0 1-.648 3.958 9.471 9.471 0 0 1-1.817 3.126 8.235 8.235 0 0 1-2.77 2.05 8.358 8.358 0 0 1-3.51.731 8.515 8.515 0 0 1-1.906-.223 7.488 7.488 0 0 1-3.49-1.867 6.186 6.186 0 0 1-1.26-1.685h-.072V33.41H0V5.4h2.16v3.287h.07c.322-.63.748-1.2 1.26-1.684a7.517 7.517 0 0 1 3.49-1.868 8.515 8.515 0 0 1 1.907-.223zm53.615 0a8.346 8.346 0 0 1 3.508.73c1.057.48 2.001 1.178 2.771 2.05a9.47 9.47 0 0 1 1.818 3.126c.443 1.272.662 2.611.648 3.958a11.637 11.637 0 0 1-.648 3.958 9.46 9.46 0 0 1-1.818 3.126 8.227 8.227 0 0 1-2.77 2.05 8.352 8.352 0 0 1-3.509.731 8.515 8.515 0 0 1-1.906-.223 7.488 7.488 0 0 1-3.49-1.867 6.186 6.186 0 0 1-1.26-1.685h-.072V33.41h-2.159V5.4h2.16v3.287h.07c.322-.63.748-1.2 1.26-1.684a7.517 7.517 0 0 1 3.49-1.868 8.515 8.515 0 0 1 1.907-.223zM111.8 0v5.4h4.75V7.59h-4.75v12.22a2.838 2.838 0 0 0 .611 1.948 2.139 2.139 0 0 0 1.691.69c.42-.002.839-.064 1.242-.183.414-.12.818-.276 1.205-.466l.18 2.192c-.458.178-.927.327-1.404.446a5.745 5.745 0 0 1-1.402.203 4.653 4.653 0 0 1-1.98-.386 3.537 3.537 0 0 1-1.331-1.035 4.22 4.22 0 0 1-.738-1.522 7.223 7.223 0 0 1-.234-1.888V7.591h-3.598V5.4h3.598V0h2.16zM83.085 4.912a7.243 7.243 0 0 1 3.364.751 7.48 7.48 0 0 1 2.447 1.989 8.71 8.71 0 0 1 1.493 2.822c.333 1.035.503 2.117.504 3.206v1.705H76.932c.02.665.11 1.325.27 1.97.192.83.527 1.62.99 2.333a6.59 6.59 0 0 0 1.924 1.949 5.46 5.46 0 0 0 3.112.812 6.325 6.325 0 0 0 3.204-.893 6.095 6.095 0 0 0 2.374-2.436l1.583 1.502a7.629 7.629 0 0 1-3.113 3.085c-1.269.63-2.668.95-4.083.934a7.994 7.994 0 0 1-3.455-.73 7.825 7.825 0 0 1-2.662-2.05 9.256 9.256 0 0 1-1.71-3.127 12.746 12.746 0 0 1-.594-3.998 11.955 11.955 0 0 1 .612-3.897 9.537 9.537 0 0 1 1.728-3.106 8.183 8.183 0 0 1 2.626-2.07 7.417 7.417 0 0 1 3.347-.751zm-42.208 0a8.352 8.352 0 0 1 3.509.73c1.056.48 2 1.179 2.77 2.05a9.47 9.47 0 0 1 1.817 3.126c.443 1.272.662 2.611.648 3.958a11.636 11.636 0 0 1-.648 3.958 9.459 9.459 0 0 1-1.817 3.126 8.232 8.232 0 0 1-2.77 2.05 8.358 8.358 0 0 1-3.51.731 8.473 8.473 0 0 1-3.525-.73 7.997 7.997 0 0 1-2.771-2.05 9.65 9.65 0 0 1-1.8-3.127 11.656 11.656 0 0 1-.647-3.958 11.663 11.663 0 0 1 .647-3.958 9.66 9.66 0 0 1 1.8-3.125 7.997 7.997 0 0 1 2.77-2.05 8.467 8.467 0 0 1 3.527-.731zm-11.37 0c.21 0 .421.02.629.061.203.04.413.088.629.142l-.252 2.395a2.361 2.361 0 0 0-.827-.162 5.421 5.421 0 0 0-2.429.507 4.65 4.65 0 0 0-1.69 1.4 6.133 6.133 0 0 0-.99 2.091 9.856 9.856 0 0 0-.324 2.578v10.23h-2.16V10.676c0-.35-.012-.777-.036-1.278a60.27 60.27 0 0 1-.054-1.523c-.012-.514-.03-.994-.054-1.44a19.77 19.77 0 0 1-.035-1.036h2.158c.024.704.042 1.38.054 2.03-.007.421.023.842.09 1.258a8.095 8.095 0 0 1 2.123-2.72 4.85 4.85 0 0 1 3.167-1.055zm73.26 0c.212 0 .423.02.63.061.204.04.414.088.63.142l-.252 2.395a2.361 2.361 0 0 0-.827-.162 5.417 5.417 0 0 0-2.43.507 4.653 4.653 0 0 0-1.691 1.4 6.147 6.147 0 0 0-.99 2.091 9.856 9.856 0 0 0-.323 2.578v10.23h-2.159V10.676c0-.35-.012-.777-.036-1.278-.024-.5-.042-1.008-.054-1.523-.012-.514-.03-.994-.054-1.44a20.56 20.56 0 0 1-.036-1.036h2.159c.023.704.041 1.38.054 2.03-.007.421.023.842.09 1.258a8.095 8.095 0 0 1 2.123-2.72 4.85 4.85 0 0 1 3.166-1.055zM62.502 7.104c-.945-.008-1.88.2-2.734.61-.83.398-1.576.957-2.195 1.643a7.74 7.74 0 0 0-1.475 2.436 8.226 8.226 0 0 0-.54 2.983 8.228 8.228 0 0 0 .54 2.984 7.743 7.743 0 0 0 1.475 2.436 7.096 7.096 0 0 0 2.195 1.644c.854.41 1.789.617 2.734.609a6.06 6.06 0 0 0 2.736-.609 6.408 6.408 0 0 0 2.086-1.644 7.182 7.182 0 0 0 1.313-2.436c.6-1.943.6-4.024 0-5.967a7.18 7.18 0 0 0-1.313-2.436 6.402 6.402 0 0 0-2.086-1.644 6.054 6.054 0 0 0-2.736-.609zm-53.615 0c-.945-.008-1.88.2-2.734.61-.83.398-1.576.957-2.195 1.643a7.74 7.74 0 0 0-1.475 2.436 8.226 8.226 0 0 0-.54 2.983 8.228 8.228 0 0 0 .54 2.984 7.743 7.743 0 0 0 1.475 2.436 7.096 7.096 0 0 0 2.195 1.644c.854.41 1.789.617 2.734.609a6.06 6.06 0 0 0 2.736-.609 6.42 6.42 0 0 0 2.087-1.644 7.196 7.196 0 0 0 1.313-2.436c.6-1.943.6-4.024 0-5.967a7.195 7.195 0 0 0-1.313-2.436 6.413 6.413 0 0 0-2.087-1.644 6.055 6.055 0 0 0-2.736-.609zm29.255.61a6.405 6.405 0 0 0-2.087 1.643 7.195 7.195 0 0 0-1.313 2.436 9.69 9.69 0 0 0-.45 2.983 9.692 9.692 0 0 0 .45 2.984c.276.89.722 1.718 1.313 2.436a6.411 6.411 0 0 0 2.087 1.644 6.449 6.449 0 0 0 5.47 0 6.414 6.414 0 0 0 2.087-1.644 7.196 7.196 0 0 0 1.313-2.436 10.137 10.137 0 0 0 0-5.967A7.195 7.195 0 0 0 45.7 9.357a6.408 6.408 0 0 0-2.088-1.644 6.445 6.445 0 0 0-5.47 0zm41.903.202a6.76 6.76 0 0 0-1.854 1.868 7.759 7.759 0 0 0-.971 2.05c-.149.44-.245.896-.288 1.36h11.802a6.137 6.137 0 0 0-.45-2.355 6.344 6.344 0 0 0-1.223-1.929 5.77 5.77 0 0 0-1.835-1.319 5.334 5.334 0 0 0-2.25-.487 5.02 5.02 0 0 0-2.931.812z"/>
    </g>
</svg>
